[Header]
FileType HTR
DataType HTRS
FileVersion 1
NumSegments 22
NumFrames 4
DataFrameRate 24
EulerRotationOrder ZYX
CalibrationUnits mm
RotationUnits Degrees
GlobalAxisofGravity Y
BoneLengthAxis Y
ScaleFactor 1.0
[SegmentNames&Hierarchy]
reference	GLOBAL
Hips	reference
Spine	Hips
Spine1	Spine
Neck	Spine1
Head	Neck
LeftShoulder	Spine1
LeftArm	LeftShoulder
LeftForeArm	LeftArm
LeftHand	LeftForeArm
RightShoulder	Spine1
RightArm	RightShoulder
RightForeArm	RightArm
RightHand	RightForeArm
LeftUpLeg	Hips
LeftLeg	LeftUpLeg
LeftFoot	LeftLeg
LeftToeBase	LeftFoot
RightUpLeg	Hips
RightLeg	RightUpLeg
RightFoot	RightLeg
RightToeBase	RightFoot
[BasePosition]
reference	0	0	0	0	0	0	1
Hips	0	0	0	0	0	0	1
Spine	0	0	0	0	-0	90	1
Spine1	0	0	0	0	0	0	1
Neck	0	0	0	-7.352327771	-7.352327771	90	1
Head	0	0	0	0	-0	90	1
LeftShoulder	0	0	0	0	0	0	1
LeftArm	0	0	0	0	0	0	1
LeftForeArm	0	0	0	0	0	0	1
LeftHand	0	0	0	0	0	0	1
RightShoulder	0	0	0	0	-0	180	1
RightArm	0	0	0	0	-0	180	1
RightForeArm	0	0	0	0	-0	180	1
RightHand	0	0	0	0	-0	180	1
LeftUpLeg	0	0	0	0	-0	-90	1
LeftLeg	0	0	0	0	-0	-90	1
LeftFoot	0	0	0	66.57146043	-66.57146043	-90	1
LeftToeBase	0	0	0	0	-90	0	1
RightUpLeg	0	0	0	0	-0	-90	1
RightLeg	0	0	0	0	-0	-90	1
RightFoot	0	0	0	66.57146043	-66.57146043	-90	1
RightToeBase	0	0	0	0	-90	0	1
[reference]
50	0	0	0	0	-0	0	1.0
51	0	0	0	0	-0	0	1.0
52	0	0	0	0	-0	0	1.0
53	0	0	0	0	-0	0	1.0
[Hips]
50	2.109586716	8.544361115	0.9451902509	370.6313477	-109.8224792	-366.6106873	1.0
51	1.896285415	8.529684067	0.9334808588	371.1524658	-108.6971054	-367.5082092	1.0
52	1.68615365	8.520858765	0.9212988019	369.5666199	-107.9823303	-365.9735107	1.0
53	1.470531106	8.527519226	0.8715379834	365.8235168	-107.964653	-362.257019	1.0
[Spine]
50	0	0.7457100153	0	-12.74141979	2.397680283	-94.4581604	1.0
51	0	0.7457100153	0	-12.25922585	2.791014671	-94.64207458	1.0
52	0	0.7457100153	0	-11.70293522	3.381756067	-93.87987518	1.0
53	0	0.7457100153	0	-10.80901718	4.268972874	-92.78100586	1.0
[Spine1]
50	0	2.140589952	0	11.93867302	0.9352350235	0.2780029476	1.0
51	0	2.140589952	0	12.34217739	1.07830143	0.2211431116	1.0
52	0	2.140589952	0	12.32815552	1.232581139	0.240264684	1.0
53	0	2.140589952	0	11.43685436	1.453472257	0.5830318332	1.0
[Neck]
50	0	2.32246995	0	-13.6100502	8.266079903	-88.12606812	1.0
51	0	2.32246995	0	-13.69688606	7.463682175	-88.53994751	1.0
52	0	2.32246995	0	-13.59310246	6.720737457	-89.09197998	1.0
53	0	2.32246995	0	-13.59953594	6.192871094	-90.11231995	1.0
[Head]
50	0	1.409579992	0.1818799973	-3.965770721	1.066616654	-92.35232544	1.0
51	0	1.409579992	0.1818799973	-4.019601822	0.2773736119	-92.62097168	1.0
52	0	1.409579992	0.1818799973	-3.969058037	-0.482286185	-92.40304565	1.0
53	0	1.409579992	0.1818799973	-3.636763334	-0.9920886159	-92.15113831	1.0
[LeftShoulder]
50	0.3668199778	1.946700096	-0.02662999928	-17.8596096	-14.53936958	-4.670148373	1.0
51	0.3668199778	1.946700096	-0.02662999928	-16.96519089	-14.64557743	-5.15064764	1.0
52	0.3668199778	1.946700096	-0.02662999928	-17.07044411	-14.37055874	-4.395494938	1.0
53	0.3668199778	1.946700096	-0.02662999928	-15.670434	-13.82058811	-3.347196817	1.0
[LeftArm]
50	1.140689969	0	0	47.97412491	9.589677811	-74.40949249	1.0
51	1.140689969	0	0	43.9995079	11.75378609	-73.48069	1.0
52	1.140689969	0	0	38.20917511	15.31806183	-72.86178589	1.0
53	1.140689969	0	0	33.45222855	18.11283302	-71.98696899	1.0
[LeftForeArm]
50	2.749800205	0	0	-6.756768703	-19.33538818	3.713312387	1.0
51	2.749800205	0	0	-7.368207455	-12.68243885	1.96382606	1.0
52	2.749800205	0	0	-8.783492088	-8.10483551	0.0939052552	1.0
53	2.749800205	0	0	-9.356393814	-5.715361595	-1.539608598	1.0
[LeftHand]
50	2.295179844	0	0	-6.230044365	-7.087122917	1.70779562	1.0
51	2.295179844	0	0	-7.294971466	-3.704553843	4.491671562	1.0
52	2.295179844	0	0	-8.771343231	0.139425844	4.623145103	1.0
53	2.295179844	0	0	-9.396560669	1.604404688	2.60749054	1.0
[RightShoulder]
50	-0.3601199985	1.946700096	-0.02662999928	-4.501251221	2.83749342	178.0744476	1.0
51	-0.3601199985	1.946700096	-0.02662999928	-5.858191013	3.196495295	178.0213928	1.0
52	-0.3601199985	1.946700096	-0.02662999928	-7.018391609	3.910200834	177.9577026	1.0
53	-0.3601199985	1.946700096	-0.02662999928	-8.104310989	4.521855354	177.3832703	1.0
[RightArm]
50	-1.140689969	0	0	44.95882416	-6.6227808	-100.3035965	1.0
51	-1.140689969	0	0	57.00415039	-2.130343676	-97.76051331	1.0
52	-1.140689969	0	0	63.64665222	2.561279774	-97.18559265	1.0
53	-1.140689969	0	0	68.01279449	6.730605125	-97.16732788	1.0
[RightForeArm]
50	-2.749800205	0	0	0.293083787	4.453595161	182.9955444	1.0
51	-2.749800205	0	0	-1.94511354	5.999305725	179.7480774	1.0
52	-2.749800205	0	0	0.3178682923	9.716201782	178.0190735	1.0
53	-2.749800205	0	0	1.65877676	14.22775555	175.6185913	1.0
[RightHand]
50	-2.295179844	0	0	0.09932202101	3.207169533	177.2158203	1.0
51	-2.295179844	0	0	-2.060181141	3.422695875	175.6411743	1.0
52	-2.295179844	0	0	0.1493083537	4.777013779	171.9359741	1.0
53	-2.295179844	0	0	1.338459611	7.577105045	166.9586182	1.0
[LeftUpLeg]
50	0.9094099998	0	0	-12.16778183	-4.540597916	86.80485535	1.0
51	0.9094099998	0	0	-9.219039917	-2.980207205	85.47988129	1.0
52	0.9094099998	0	0	-5.59895134	-2.030910492	85.40925598	1.0
53	0.9094099998	0	0	-1.001324296	-0.957498014	85.82510376	1.0
[LeftLeg]
50	0	-4.498080254	0	29.26778793	-7.13496542	77.58136749	1.0
51	0	-4.498080254	0	27.14930153	-7.531730652	79.5330658	1.0
52	0	-4.498080254	0	22.76501846	-8.922246933	80.87467957	1.0
53	0	-4.498080254	0	16.3373127	-9.83102417	82.97154999	1.0
[LeftFoot]
50	0	-3.729400158	0	-85.68106079	116.3115387	-27.93346786	1.0
51	0	-3.729400158	0	-88.65110779	115.3990936	-31.43216705	1.0
52	0	-3.729400158	0	-87.69021606	115.5513	-31.66026688	1.0
53	0	-3.729400158	0	-86.12387085	115.8972626	-32.14363098	1.0
[LeftToeBase]
50	0	-0.5911099911	1.364109993	0	0	0	1.0
51	0	-0.5911099911	1.364109993	0	0	0	1.0
52	0	-0.5911099911	1.364109993	0	0	0	1.0
53	0	-0.5911099911	1.364109993	0	0	0	1.0
[RightUpLeg]
50	-0.9094099998	0	0	-10.81431103	-6.38946104	89.66408539	1.0
51	-0.9094099998	0	0	-16.06664276	-6.484219074	90.95269012	1.0
52	-0.9094099998	0	0	-21.02937698	-7.048862457	93.03562927	1.0
53	-0.9094099998	0	0	-24.97988701	-6.582487583	95.24398041	1.0
[RightLeg]
50	0	-4.498080254	0	60.07264328	7.476786137	81.25064087	1.0
51	0	-4.498080254	0	64.48530579	7.58607769	80.78024292	1.0
52	0	-4.498080254	0	63.58519745	6.667566299	79.10681915	1.0
53	0	-4.498080254	0	59.15145874	7.276012421	82.99520111	1.0
[RightFoot]
50	0	-3.729400158	0	80.07763672	57.34075165	105.0011673	1.0
51	0	-3.729400158	0	75.47176361	58.88618469	101.1490936	1.0
52	0	-3.729400158	0	74.58625793	62.17395782	102.6355057	1.0
53	0	-3.729400158	0	61.02756882	61.06507874	91.17132568	1.0
[RightToeBase]
50	0	-0.5911099911	1.364109993	0	0	0	1.0
51	0	-0.5911099911	1.364109993	0	0	0	1.0
52	0	-0.5911099911	1.364109993	0	0	0	1.0
53	0	-0.5911099911	1.364109993	0	0	0	1.0
[EndOfFile]
